<svg xmlns="http://www.w3.org/2000/svg" width="500" height="500" viewBox="0 0 500 500" preserveAspectRatio="true">
		<path d="M192.2,94.19c-17.74-16.07-41.63-21.25-63.25-15.9l48.59,44.03l-11.37,53.57l-51.3,17.4l-49.69-45.05
			c-3.37,22.2,4.08,45.66,21.96,61.85c23.95,21.72,59.07,23.57,84.8,6.41l197.64,179.11c1.12,7.26,4.63,14.2,10.5,19.52
			c13.59,12.33,34.6,11.29,46.93-2.3c12.32-13.59,11.28-34.61-2.32-46.92c-5.85-5.31-13.12-8.14-20.44-8.56L206.7,178.32
			C221.47,150.97,216.24,115.98,192.2,94.19z M414.73,401.71c-6.18,6.83-16.72,7.33-23.53,1.16c-6.81-6.18-7.32-16.72-1.15-23.54
			c6.18-6.81,16.69-7.34,23.51-1.15C420.38,384.37,420.89,394.9,414.73,401.71z"/>
</svg>
